# xmcd CD database file
#
# Track frame offsets:
#	150
#	12651
#	30125
#	49001
#	64245
#	82105
#	90251
#	103626
#	117591
#	129303
#	141959
#	157101
#	165962
#
# Disc length: 2488 seconds
#
# Revision: 0
# Processed by: cddbd v1.5.2PL0 Copyright (c) Steve Scherf et al.
# Submitted via: CDex 1.51
#
DISCID=a309b60d
DTITLE=Christian Williams - For My Mind, It Was Flying
DYEAR=2006
DGENRE=Country
TTITLE0=The Devil's In Your Eyes
TTITLE1=Rye Whiskey
TTITLE2=Lonesome Wail
TTITLE3=Three Kisses
TTITLE4=CC Rider
TTITLE5=Itchin' For a Fix of You
TTITLE6=For My Mind, It Was Flying
TTITLE7=Retirement Plan
TTITLE8=Cora
TTITLE9=No Good Baby
TTITLE10=Old Flame
TTITLE11=Repeat Offender
TTITLE12=San Francisco
EXTD=YEAR: 2006
EXTT0=
EXTT1=
EXTT2=
EXTT3=
EXTT4=
EXTT5=
EXTT6=
EXTT7=
EXTT8=
EXTT9=
EXTT10=
EXTT11=
EXTT12=
PLAYORDER=
